# xmcd
#
# Track frame offsets: 
#        150
#        28319
#        53285
#        76697
#        117708
#        157178
#        212663
#
# Disc length: 3571 seconds
#
# Revision: 0
# Processed by: cddbd v1.5.2PL0 Copyright (c) Steve Scherf et al.
# Submitted via: ExactAudioCopy v0.99pb4
#
DISCID=570df107
DTITLE=Savoy Brown - Train To Nowhere [CD 1)
DYEAR=2010
DGENRE=Blues
TTITLE0=Too Much Of A Good Thing
TTITLE1=Let It Rock
TTITLE2=Train To Nowhere
TTITLE3=Bad Shape
TTITLE4=Mr. Browns Boogie
TTITLE5=Stay While The Night Is Young
TTITLE6=Savoy Brown Medley (a, b, c, d, e)
EXTD=
EXTT0=
EXTT1=
EXTT2=
EXTT3=
EXTT4=
EXTT5=
EXTT6=
PLAYORDER=
